<svg width="431" height="347" viewBox="0 0 431 347" fill="none" xmlns="http://www.w3.org/2000/svg">
<g filter="url(#filter0_d_49_788)">
<rect x="83.3506" y="79.3506" width="180.212" height="180.212" rx="40" fill="white"/>
</g>
<rect x="81.5" y="77.5" width="4.48471" height="4.48471" stroke="#1AE5DD"/>
<rect x="81.5" y="256.928" width="4.48471" height="4.48471" stroke="#8297BB"/>
<rect x="260.928" y="256.928" width="4.48471" height="4.48471" stroke="#F44196"/>
<rect x="260.928" y="77.5" width="4.48471" height="4.48471" stroke="#8694BA"/>
<rect x="95.6038" y="91.6035" width="4.48471" height="4.48471" rx="2.24235" stroke="#24DDDA"/>
<rect x="246.825" y="91.6035" width="4.48471" height="4.48471" rx="2.24235" stroke="#8694BA"/>
<rect x="246.825" y="242.825" width="4.48471" height="4.48471" rx="2.24235" stroke="#F44196"/>
<rect x="95.6038" y="242.825" width="4.48471" height="4.48471" rx="2.24235" stroke="#8297BB"/>
<g filter="url(#filter1_d_49_788)">
<path fill-rule="evenodd" clip-rule="evenodd" d="M404.532 208.092C401.699 209.05 399.659 211.73 399.659 214.886C399.659 218.846 402.87 222.056 406.83 222.056C410.79 222.056 414 218.846 414 214.886C414 211.24 411.279 208.229 407.756 207.775C405.307 179.846 393.114 153.531 373.133 133.55C350.67 111.088 320.204 98.4683 288.437 98.4683C256.671 98.4683 226.205 111.088 203.742 133.55C182.897 154.396 170.528 182.133 168.855 211.407C166.06 212.385 164.054 215.047 164.054 218.177C164.054 222.137 167.264 225.347 171.225 225.347C175.185 225.347 178.395 222.137 178.395 218.177C178.395 214.676 175.887 211.762 172.57 211.132C174.351 182.96 186.331 156.297 206.41 136.218C228.226 114.403 257.815 102.147 288.667 102.147C319.519 102.147 349.108 114.403 370.924 136.218C390.279 155.573 402.109 181.046 404.532 208.092Z" fill="white"/>
</g>
<path d="M281.268 165.109L298.759 165.109C299.521 165.103 300.249 164.807 300.787 164.284C301.326 163.761 301.631 163.054 301.636 162.315L301.636 156.109L306.257 146.231C306.465 145.786 306.549 145.296 306.5 144.81C306.45 144.324 306.27 143.859 305.977 143.462L292.764 125.486C292.676 125.363 292.549 125.271 292.403 125.223C292.257 125.175 292.099 125.174 291.953 125.22C291.806 125.265 291.678 125.355 291.588 125.477C291.498 125.598 291.45 125.745 291.452 125.894L291.465 139.506C292.458 139.754 293.364 140.258 294.087 140.964C294.893 141.747 295.442 142.744 295.664 143.829C295.886 144.914 295.772 146.039 295.336 147.061C294.9 148.084 294.162 148.957 293.214 149.572C292.267 150.187 291.153 150.515 290.014 150.515C288.874 150.515 287.761 150.187 286.813 149.572C285.866 148.957 285.128 148.084 284.692 147.061C284.256 146.039 284.141 144.914 284.364 143.829C284.586 142.744 285.135 141.747 285.94 140.964C286.664 140.258 287.569 139.754 288.563 139.506L288.575 125.894C288.577 125.745 288.53 125.598 288.44 125.477C288.35 125.355 288.222 125.265 288.075 125.22C287.928 125.174 287.77 125.175 287.624 125.223C287.478 125.271 287.352 125.363 287.264 125.486L274.038 143.449C273.75 143.851 273.573 144.318 273.527 144.806C273.48 145.293 273.564 145.784 273.771 146.231L278.392 156.109L278.392 162.315C278.39 162.682 278.463 163.046 278.607 163.386C278.751 163.726 278.962 164.035 279.23 164.294C279.497 164.554 279.815 164.76 280.165 164.9C280.515 165.039 280.89 165.11 281.268 165.109ZM281.268 157.197L298.759 157.197L298.759 162.315L281.268 162.315L281.268 157.197ZM287.977 142.942C288.38 142.551 288.893 142.285 289.452 142.177C290.011 142.069 290.59 142.124 291.116 142.336C291.642 142.548 292.092 142.906 292.409 143.366C292.725 143.826 292.894 144.367 292.894 144.92C292.894 145.474 292.725 146.014 292.409 146.474C292.092 146.935 291.642 147.293 291.116 147.505C290.59 147.717 290.011 147.772 289.452 147.664C288.893 147.556 288.38 147.29 287.977 146.898C287.437 146.374 287.133 145.662 287.133 144.92C287.133 144.178 287.437 143.467 287.977 142.942Z" fill="url(#paint0_linear_49_788)"/>
<rect x="282.867" y="93.9541" width="13.1035" height="13.1035" stroke="black"/>
<rect x="83.8506" y="79.8506" width="179.212" height="179.212" stroke="url(#paint1_linear_49_788)"/>
<defs>
<filter id="filter0_d_49_788" x="0.350586" y="0.350586" width="346.212" height="346.212" filterUnits="userSpaceOnUse" color-interpolation-filters="sRGB">
<feFlood flood-opacity="0" result="BackgroundImageFix"/>
<feColorMatrix in="SourceAlpha" type="matrix" values="0 0 0 0 0 0 0 0 0 0 0 0 0 0 0 0 0 0 127 0" result="hardAlpha"/>
<feOffset dy="4"/>
<feGaussianBlur stdDeviation="41.5"/>
<feComposite in2="hardAlpha" operator="out"/>
<feColorMatrix type="matrix" values="0 0 0 0 0 0 0 0 0 0 0 0 0 0 0 0 0 0 0.04 0"/>
<feBlend mode="normal" in2="BackgroundImageFix" result="effect1_dropShadow_49_788"/>
<feBlend mode="normal" in="SourceGraphic" in2="effect1_dropShadow_49_788" result="shape"/>
</filter>
<filter id="filter1_d_49_788" x="147.054" y="85.4683" width="283.946" height="160.879" filterUnits="userSpaceOnUse" color-interpolation-filters="sRGB">
<feFlood flood-opacity="0" result="BackgroundImageFix"/>
<feColorMatrix in="SourceAlpha" type="matrix" values="0 0 0 0 0 0 0 0 0 0 0 0 0 0 0 0 0 0 127 0" result="hardAlpha"/>
<feOffset dy="4"/>
<feGaussianBlur stdDeviation="8.5"/>
<feComposite in2="hardAlpha" operator="out"/>
<feColorMatrix type="matrix" values="0 0 0 0 0 0 0 0 0 0 0 0 0 0 0 0 0 0 0.14 0"/>
<feBlend mode="normal" in2="BackgroundImageFix" result="effect1_dropShadow_49_788"/>
<feBlend mode="normal" in="SourceGraphic" in2="effect1_dropShadow_49_788" result="shape"/>
</filter>
<linearGradient id="paint0_linear_49_788" x1="303.381" y1="161.765" x2="277.419" y2="135.032" gradientUnits="userSpaceOnUse">
<stop stop-color="#20CFDB"/>
<stop offset="1" stop-color="#0A57E3"/>
</linearGradient>
<linearGradient id="paint1_linear_49_788" x1="77.4741" y1="82.0929" x2="263.562" y2="262.305" gradientUnits="userSpaceOnUse">
<stop stop-color="#12EADF"/>
<stop offset="1" stop-color="#F73E94"/>
</linearGradient>
</defs>
</svg>
