<svg width="333" height="296" viewBox="0 0 333 296" fill="none" xmlns="http://www.w3.org/2000/svg">
<g clip-path="url(#clip0_49_401)">
<path d="M211.29 289.578L211.287 289.547C210.909 281.223 209.368 272.99 206.709 265.085L206.707 265.072C206.551 264.26 206.597 263.423 206.838 262.633C207.581 260.366 209.883 258.978 212.255 259.368C214.704 259.825 217.238 259.396 219.396 258.16C220.767 257.371 222.43 257.262 223.893 257.864C225.273 258.422 226.306 259.594 226.677 261.025C226.706 261.138 226.731 261.252 226.753 261.367C226.83 269.731 228.38 278.017 231.332 285.853L231.333 285.863C231.642 287.481 231.149 289.147 230.009 290.344C229 291.359 227.588 291.874 226.157 291.748C223.588 291.574 220.946 292.09 218.08 293.328C217.079 293.769 215.953 293.848 214.899 293.549C213.036 293.008 211.64 291.471 211.29 289.578Z" fill="#CACDCD"/>
<path d="M129.174 175.224V284.542H206.417V175.224C206.42 173.61 205.36 172.183 203.805 171.707C203.448 171.59 203.073 171.532 202.697 171.536H132.904C130.848 171.532 129.178 173.182 129.174 175.22V175.224ZM159.319 212.786C159.36 208.271 163.086 204.644 167.64 204.686C172.135 204.727 175.769 208.329 175.81 212.786V225.47C175.789 229.985 172.079 233.628 167.525 233.607C163.002 233.586 159.34 229.955 159.319 225.47V212.786Z" fill="#F2F2F2"/>
<path d="M128.937 281.046V291.587C128.941 292.724 129.866 293.646 131.012 293.655H204.579C205.726 293.649 206.654 292.725 206.654 291.587V281.046H128.937Z" fill="#E6E6E6"/>
<path d="M7.65942 10.5231V210.121C7.66365 215.418 11.9931 219.71 17.335 219.714H315.665C321.007 219.71 325.336 215.418 325.341 210.121V10.5231C325.328 5.23193 321.002 0.947386 315.665 0.940674H17.335C11.9983 0.947412 7.67213 5.23194 7.65942 10.5231Z" fill="#E6E6E6"/>
<path d="M313.176 7.8689H19.8239C16.9663 7.87506 14.6531 10.1734 14.6528 13.0065V207.659C14.6577 210.489 16.97 212.781 19.8239 212.786H313.176C316.03 212.781 318.342 210.489 318.347 207.659V13.0065C318.347 10.1734 316.034 7.87507 313.176 7.8689ZM239.177 146.161C238.3 147.878 236.522 148.959 234.58 148.955L234.55 148.953C231.738 148.564 228.915 148.308 226.082 148.184C226.522 148.496 226.909 148.876 227.229 149.309C228.051 150.477 228.304 151.948 227.917 153.32C227.277 155.792 227.307 158.462 228.011 161.482C228.266 162.538 228.139 163.65 227.65 164.622C226.774 166.34 224.995 167.421 223.054 167.416L223.023 167.414C216.307 166.486 209.507 166.307 202.751 166.878C202.724 167.047 202.691 167.217 202.647 167.386C202.006 169.858 202.037 172.528 202.741 175.547C202.996 176.604 202.868 177.716 202.38 178.688C201.503 180.406 199.725 181.486 197.783 181.482L197.753 181.48C190.855 180.528 183.87 180.365 176.936 180.994C176.883 182.711 177.063 184.427 177.47 186.097C177.726 187.153 177.598 188.265 177.11 189.237C176.233 190.955 174.455 192.036 172.513 192.031L172.482 192.029C164.158 190.879 155.713 190.879 147.389 192.029H147.375C146.542 192.032 145.72 191.836 144.98 191.456C142.867 190.318 141.911 187.82 142.731 185.58C142.983 184.875 143.169 184.148 143.289 183.41C135.661 182.538 127.951 182.628 120.345 183.677H120.332C119.498 183.681 118.676 183.484 117.936 183.104C115.824 181.967 114.868 179.469 115.687 177.228C116.587 174.924 116.624 172.376 115.791 170.046C115.399 168.954 115.399 167.761 115.791 166.669C110.057 166.379 104.308 166.629 98.6214 167.414H98.608C97.7746 167.417 96.9528 167.22 96.2125 166.841C94.1001 165.703 93.1441 163.205 93.9638 160.965C94.8632 158.66 94.9001 156.112 94.0677 153.783C93.536 152.303 93.7312 150.662 94.5955 149.345C95.4002 148.101 96.7511 147.309 98.2379 147.208C98.3548 147.201 98.4721 147.197 98.5907 147.197C101.504 147.701 104.446 148.031 107.4 148.183C105.515 146.955 104.726 144.607 105.491 142.504C106.39 140.199 106.427 137.651 105.595 135.321C105.063 133.842 105.258 132.2 106.122 130.884C106.16 130.827 106.203 130.777 106.243 130.722C104.141 130.866 102.044 131.082 99.9515 131.37H99.938C99.1046 131.374 98.2828 131.177 97.5425 130.797C95.4301 129.66 94.4741 127.162 95.2938 124.921C96.1933 122.617 96.2301 120.069 95.3977 117.739C94.866 116.259 95.0612 114.618 95.9255 113.301C96.7302 112.058 98.0812 111.265 99.5679 111.165C99.6848 111.157 99.8021 111.153 99.9207 111.153C103.424 111.761 106.967 112.115 110.523 112.211C109.616 110.915 109.393 109.266 109.924 107.779C110.823 105.474 110.86 102.926 110.028 100.597C109.496 99.1167 109.691 97.4755 110.556 96.1588C111.36 94.9153 112.711 94.1228 114.198 94.0221C114.315 94.0144 114.432 94.0103 114.551 94.0103C117.516 94.5244 120.509 94.8567 123.515 95.0053C122.869 93.793 122.764 92.3684 123.224 91.0755C124.124 88.7708 124.16 86.2228 123.328 83.8935C122.796 82.4136 122.992 80.7724 123.856 79.4556C124.661 78.2122 126.012 77.4197 127.498 77.319C127.615 77.3113 127.732 77.3072 127.851 77.3072C131.339 77.9127 134.868 78.2658 138.408 78.3639C137.926 77.235 137.887 75.9682 138.298 74.812C139.197 72.5073 139.234 69.9593 138.402 67.6299C137.87 66.15 138.065 64.5088 138.929 63.1921C139.734 61.9486 141.085 61.1562 142.572 61.0555C142.689 61.0478 142.806 61.0437 142.925 61.0437C151.233 62.4936 159.733 62.4947 168.042 61.0469H168.052C168.693 61.1779 169.355 61.1779 169.996 61.0469H170.006C178.315 62.4947 186.815 62.4936 195.123 61.0437C195.242 61.0437 195.359 61.0478 195.476 61.0555C196.963 61.1562 198.314 61.9486 199.119 63.1921C199.983 64.5088 200.178 66.15 199.646 67.6299C198.814 69.9593 198.851 72.5073 199.75 74.812C200.161 75.9682 200.122 77.235 199.64 78.3639C203.18 78.2658 206.708 77.9127 210.197 77.3072C210.316 77.3072 210.433 77.3113 210.55 77.319C212.036 77.4197 213.387 78.2122 214.192 79.4556C215.056 80.7724 215.252 82.4136 214.72 83.8935C213.887 86.2228 213.924 88.7708 214.824 91.0755C215.284 92.3684 215.179 93.793 214.533 95.0053C217.539 94.8567 220.532 94.5244 223.497 94.0103C223.616 94.0103 223.733 94.0144 223.85 94.0221C225.337 94.1228 226.688 94.9153 227.492 96.1588C228.357 97.4755 228.552 99.1167 228.02 100.597C227.188 102.926 227.225 105.474 228.124 107.779C228.657 109.269 228.431 110.923 227.519 112.221C227.915 112.517 228.265 112.869 228.559 113.265C229.381 114.433 229.634 115.904 229.247 117.276C228.607 119.749 228.637 122.419 229.341 125.438C229.596 126.494 229.469 127.606 228.98 128.579C228.802 128.925 228.584 129.25 228.332 129.548C230.407 129.367 232.477 129.097 234.542 128.738H234.553C236.214 128.733 237.777 129.517 238.755 130.847C239.578 132.015 239.83 133.487 239.444 134.858C238.803 137.331 238.834 140.001 239.538 143.02C239.793 144.077 239.665 145.188 239.177 146.161Z" fill="white"/>
<path d="M303.661 34.6833H29.1728C28.5699 34.6701 28.092 34.1749 28.1053 33.5772C28.1181 32.998 28.5886 32.5316 29.1728 32.5188H303.661C304.264 32.532 304.742 33.0272 304.729 33.6249C304.716 34.2041 304.246 34.6705 303.661 34.6833Z" fill="#E6E6E6"/>
<path d="M169.733 186.846L169.702 186.844C161.378 185.694 152.933 185.694 144.609 186.844H144.595C143.762 186.847 142.94 186.651 142.2 186.271C140.087 185.134 139.131 182.636 139.951 180.395C140.851 178.09 140.887 175.542 140.055 173.213C139.523 171.733 139.718 170.092 140.583 168.775C141.388 167.532 142.738 166.739 144.225 166.639C144.342 166.631 144.459 166.627 144.578 166.627C152.886 168.077 161.386 168.078 169.695 166.63H169.705C171.366 166.624 172.929 167.408 173.908 168.739C174.73 169.907 174.983 171.378 174.597 172.75C173.956 175.223 173.986 177.892 174.69 180.912C174.946 181.968 174.818 183.08 174.33 184.052C173.453 185.77 171.675 186.851 169.733 186.846Z" fill="url(#paint0_linear_49_401)"/>
<path d="M195.333 143.749L188.636 138.254C183.614 140.864 175.972 151.284 175.972 151.284L158.343 163.854C156.226 163.954 154.592 165.737 154.693 167.836C154.793 169.935 156.591 171.556 158.709 171.456C160.083 171.391 161.316 170.602 161.943 169.388L185.895 156.838L195.333 143.749Z" fill="#FFB8B8"/>
<path d="M206.631 122.837C210.497 126.082 210.976 131.82 207.703 135.652C207.336 136.082 206.93 136.476 206.489 136.831L202.231 140.264C202.231 140.264 191.608 155.426 186.079 157.185L171.883 164.537L165.483 158.175L178.348 147.779C178.348 147.779 184.265 142.23 184.858 138.168C185.22 135.681 189.467 128.904 193.723 123.878C196.99 120.057 202.763 119.585 206.617 122.824L206.631 122.837Z" fill="#3F3D56"/>
<path d="M192.869 287.386L186.818 287.386L183.94 264.248L192.87 264.248L192.869 287.386Z" fill="#FFB6B6"/>
<path d="M193.082 293.644L174.476 293.644V293.41C174.476 289.445 177.718 286.231 181.718 286.23L185.117 283.674L191.458 286.231L193.082 286.231L193.082 293.644Z" fill="#2F2E41"/>
<path d="M238.969 255.813L236.103 261.096L214.186 252.653L218.415 244.855L238.969 255.813Z" fill="#FFB6B6"/>
<path d="M244.629 258.59L235.818 274.837L235.611 274.727C232.088 272.849 230.768 268.496 232.662 265.003L232.662 265.003L232 260.824L237.274 256.498L238.043 255.08L244.629 258.59Z" fill="#2F2E41"/>
<path d="M181.43 181.427L176.09 223.782L178.76 237.982L226.82 258.858L229.49 250.254C217.205 242.801 204.073 231.522 195.798 230.692C195.798 230.692 195.112 223.176 201.04 218.537C202.236 217.601 201.974 216.335 202.458 215.187C202.791 214.398 204.114 213.576 204.452 212.766C204.892 211.717 204.348 210.674 204.79 209.608C205.038 209.008 205.979 208.971 206.226 208.371C206.647 207.347 206.371 205.762 206.781 204.751C207.658 202.59 208.5 200.477 209.269 198.496C211.664 192.33 213.349 187.445 213.136 186.39C212.469 183.081 181.43 181.427 181.43 181.427Z" fill="#2F2E41"/>
<path d="M180.51 223.659L177.716 241.546L184.767 278.05H194.112C197.469 265.784 197.643 249.664 194.446 236.025L180.51 223.659Z" fill="#2F2E41"/>
<path d="M186.514 129.677L190.822 122.234L195.447 118.555L204.125 117.232L206.536 119.07C215.212 132.217 218.447 148.172 215.57 163.622L214.893 167.259L214.463 169.568L214.649 172.327L213.201 176.344L213.4 179.286L213.507 180.857L213.613 182.433L213.762 184.634C214.029 185.891 212.686 185.725 212.876 186.832C213.209 188.777 214.706 191.658 212.432 191.667L188.935 186.832C182.966 186.857 177.409 179.799 183.172 174.085L186.514 129.677Z" fill="#3F3D56"/>
<path d="M197.512 115.158C203.814 115.158 208.922 110.094 208.922 103.846C208.922 97.598 203.814 92.5332 197.512 92.5332C191.211 92.5332 186.102 97.598 186.102 103.846C186.102 110.094 191.211 115.158 197.512 115.158Z" fill="#FFB8B8"/>
<path d="M197.706 114.837C199.375 114.863 201.044 114.747 202.693 114.491C204.328 114.162 207.986 111.504 209.006 109.905C209.764 108.717 210.248 106.861 210.521 105.514C211.265 101.908 210.432 98.1591 208.229 95.1972C207.81 94.5846 207.232 94.0956 206.556 93.7818C206.496 93.7586 206.435 93.738 206.373 93.7204C205.387 93.4635 204.502 92.9205 203.831 92.1612C203.701 92.0076 203.56 91.8635 203.408 91.7301C202.649 91.0951 201.75 90.6471 200.783 90.4229C199.222 90.0087 196.963 90.4199 194.069 91.646C192.615 92.2621 191.025 92.0391 189.802 91.7761C189.662 91.7493 189.519 91.798 189.425 91.9041C188.904 92.3885 188.218 92.6596 187.504 92.663C187.067 92.6821 186.608 93.2823 186.054 94.065C185.928 94.2427 185.781 94.4501 185.676 94.5762L185.661 94.3339L185.414 94.6042C184.142 95.9947 184.247 98.1446 185.65 99.4061C186.027 99.7451 186.475 99.9967 186.962 100.143C187.402 100.259 187.852 100.33 188.307 100.355C188.582 100.38 188.867 100.405 189.14 100.452C190.921 100.814 192.38 102.077 192.981 103.778C193.233 104.475 194.007 104.837 194.71 104.587C194.82 104.548 194.925 104.495 195.022 104.429C195.598 103.983 196.359 103.846 197.057 104.061C197.354 104.225 197.585 104.485 197.712 104.798C197.866 105.147 198.121 105.442 198.445 105.646C199.554 106.213 199.63 108.722 199.232 110.814C198.848 112.83 198.09 114.289 197.388 114.361C196.847 114.416 196.786 114.454 196.746 114.549L196.711 114.634L196.772 114.713C197.071 114.821 197.389 114.863 197.706 114.837Z" fill="#2F2E41"/>
<path d="M174.61 108.166L174.579 108.164C166.255 107.014 157.81 107.014 149.485 108.164H149.472C148.639 108.167 147.817 107.97 147.077 107.591C144.964 106.453 144.008 103.955 144.828 101.715C145.727 99.4099 145.764 96.8619 144.932 94.5325C144.4 93.0526 144.595 91.4114 145.459 90.0947C146.264 88.8512 147.615 88.0588 149.102 87.9581C149.219 87.9504 149.336 87.9463 149.455 87.9463C157.763 89.3962 166.263 89.3973 174.572 87.9495H174.582C176.243 87.9437 177.806 88.728 178.785 90.0584C179.607 91.2264 179.86 92.6976 179.474 94.0696C178.833 96.5421 178.863 99.2118 179.567 102.231C179.822 103.288 179.695 104.4 179.206 105.372C178.33 107.09 176.551 108.17 174.61 108.166Z" fill="url(#paint1_linear_49_401)"/>
<path d="M185.28 134.81L190.001 127.573C186.8 122.933 175.47 116.626 175.47 116.626L160.818 100.737C160.47 98.6639 158.494 97.2627 156.403 97.6073C154.312 97.9518 152.899 99.9117 153.246 101.985C153.472 103.33 154.406 104.453 155.696 104.928L171.065 127.046L185.28 134.81Z" fill="#FFB8B8"/>
<path d="M207.548 143.491C204.749 147.677 199.057 148.82 194.836 146.044C194.363 145.733 193.92 145.379 193.513 144.987L189.577 141.195C189.577 141.195 173.078 132.653 170.67 127.414L159.86 112.211L167.108 105.728L179.707 117.084C179.707 117.084 185.508 123.734 189.646 123.843C192.18 123.909 199.465 127.299 204.997 130.903C209.206 133.673 210.353 139.302 207.559 143.475L207.548 143.491Z" fill="#3F3D56"/>
<path d="M97.6401 293.578L97.6094 293.576C89.285 292.426 80.8401 292.426 72.5157 293.576H72.5023C71.6689 293.579 70.8471 293.383 70.1068 293.003C67.9944 291.866 67.0384 289.368 67.8581 287.127C68.7575 284.822 68.7944 282.275 67.962 279.945C67.4303 278.465 67.6254 276.824 68.4897 275.507C69.2945 274.264 70.6454 273.471 72.1321 273.371C72.249 273.363 72.3664 273.359 72.485 273.359C80.7934 274.809 89.2933 274.81 97.602 273.362H97.6124C99.2733 273.356 100.836 274.141 101.815 275.471C102.637 276.639 102.89 278.11 102.504 279.482C101.863 281.955 101.893 284.624 102.597 287.644C102.853 288.7 102.725 289.812 102.237 290.785C101.36 292.502 99.5816 293.583 97.6401 293.578Z" fill="#CACDCD"/>
<path d="M42.6604 280.15L42.6794 280.126C48.3044 273.934 53.0363 266.999 56.74 259.519L56.7475 259.508C57.2118 258.821 57.8366 258.257 58.5685 257.862C60.7024 256.764 63.3249 257.379 64.7374 259.307C66.1588 261.337 68.2667 262.795 70.679 263.417C72.2133 263.81 73.475 264.889 74.0907 266.337C74.6786 267.695 74.5836 269.248 73.8347 270.525C73.7757 270.626 73.7133 270.724 73.6469 270.822C67.7803 276.832 63.0167 283.812 59.5706 291.446L59.5648 291.455C58.639 292.822 57.108 293.666 55.4481 293.724C54.0117 293.745 52.6411 293.128 51.7113 292.042C50.0048 290.131 47.7575 288.66 44.8404 287.546C43.8148 287.164 42.9576 286.436 42.4188 285.49C41.4753 283.808 41.5687 281.742 42.6604 280.15Z" fill="#E6E6E6"/>
<path d="M332.475 294.249L0.525124 294.384C0.233589 294.382 -0.00151771 294.147 7.37788e-06 293.858C0.00151473 293.571 0.235739 293.339 0.525124 293.337L332.475 293.202C332.766 293.204 333.002 293.439 333 293.728C332.999 294.015 332.764 294.247 332.475 294.249Z" fill="#CACACA"/>
<path d="M71.0458 24.6363C73.1164 24.6363 74.7949 22.935 74.7949 20.8364C74.7949 18.7377 73.1164 17.0364 71.0458 17.0364C68.9752 17.0364 67.2966 18.7377 67.2966 20.8364C67.2966 22.935 68.9752 24.6363 71.0458 24.6363Z" fill="#030335"/>
<path d="M83.9974 24.6363C86.068 24.6363 87.7466 22.935 87.7466 20.8364C87.7466 18.7377 86.068 17.0364 83.9974 17.0364C81.9268 17.0364 80.2483 18.7377 80.2483 20.8364C80.2483 22.935 81.9268 24.6363 83.9974 24.6363Z" fill="#030335"/>
<path d="M96.9488 24.6363C99.0194 24.6363 100.698 22.935 100.698 20.8364C100.698 18.7377 99.0194 17.0364 96.9488 17.0364C94.8783 17.0364 93.1997 18.7377 93.1997 20.8364C93.1997 22.935 94.8783 24.6363 96.9488 24.6363Z" fill="#030335"/>
<path d="M111.717 23.8398C111.602 23.8398 111.487 23.7956 111.4 23.7076L108.871 21.1437C108.702 20.9728 108.702 20.6998 108.871 20.529L111.4 17.9652C111.572 17.7918 111.853 17.789 112.027 17.9584C112.202 18.1281 112.205 18.4065 112.034 18.5799L109.808 20.8363L112.034 23.0929C112.205 23.2663 112.202 23.5447 112.027 23.7144C111.941 23.7982 111.829 23.8398 111.717 23.8398Z" fill="#030335"/>
<path d="M115.968 23.8399C115.856 23.8399 115.744 23.7982 115.658 23.7145C115.483 23.5448 115.48 23.2666 115.651 23.093L117.877 20.8364L115.651 18.58C115.48 18.4066 115.483 18.1282 115.658 17.9585C115.833 17.7885 116.114 17.7917 116.285 17.9653L118.814 20.529C118.983 20.6999 118.983 20.9729 118.814 21.1437L116.285 23.7077C116.198 23.7957 116.083 23.8399 115.968 23.8399Z" fill="#030335"/>
<path d="M248.309 17.4763H243.605C243.069 17.4763 242.634 17.9071 242.634 18.4389V23.107C242.634 23.6389 243.069 24.0696 243.605 24.0696H248.309C248.845 24.0696 249.284 23.6389 249.284 23.107V18.4389C249.284 17.9071 248.845 17.4763 248.309 17.4763Z" fill="#030335"/>
<path d="M236.782 17.4763H232.078C231.542 17.4763 231.107 17.9071 231.107 18.4389V23.107C231.107 23.6389 231.542 24.0696 232.078 24.0696H236.782C237.319 24.0696 237.758 23.6389 237.758 23.107V18.4389C237.758 17.9071 237.319 17.4763 236.782 17.4763Z" fill="#030335"/>
<path d="M259.171 17.696H254.467C253.931 17.696 253.496 18.1268 253.496 18.6587V23.3267C253.496 23.8586 253.931 24.2894 254.467 24.2894H259.171C259.707 24.2894 260.146 23.8586 260.146 23.3267V18.6587C260.146 18.1268 259.707 17.696 259.171 17.696Z" fill="#030335"/>
<path d="M188.271 19.4719H150.672C150.016 19.4719 149.488 19.9994 149.488 20.6456C149.488 21.2917 150.016 21.8192 150.672 21.8192H188.271C188.923 21.8192 189.455 21.2917 189.455 20.6456C189.455 19.9994 188.923 19.4719 188.271 19.4719Z" fill="#030335"/>
</g>
<defs>
<linearGradient id="paint0_linear_49_401" x1="139.792" y1="181.345" x2="171.615" y2="180.774" gradientUnits="userSpaceOnUse">
<stop offset="0.0286796" stop-color="#D8569F"/>
<stop offset="1" stop-color="#B074AC"/>
</linearGradient>
<linearGradient id="paint1_linear_49_401" x1="148.316" y1="108.391" x2="179.57" y2="108.391" gradientUnits="userSpaceOnUse">
<stop stop-color="#3BCBD2"/>
<stop offset="1" stop-color="#3DA6CA"/>
</linearGradient>
<clipPath id="clip0_49_401">
<rect width="333" height="294.076" fill="white" transform="translate(0 0.940674)"/>
</clipPath>
</defs>
</svg>
